<?xml version="1.0" standalone="no"?>
<!DOCTYPE svg PUBLIC "-//W3C//DTD SVG 20010904//EN"
 "http://www.w3.org/TR/2001/REC-SVG-20010904/DTD/svg10.dtd">
<svg version="1.0" xmlns="http://www.w3.org/2000/svg"
 width="160.000000pt" height="160.000000pt" viewBox="0 0 160.000000 160.000000"
 preserveAspectRatio="xMidYMid meet">
<metadata>
Created by potrace 1.15, written by Peter Selinger 2001-2017
</metadata>
<g transform="translate(0.000000,160.000000) scale(0.100000,-0.100000)"
fill="#000000" stroke="none">
<path d="M0 1398 c0 -112 4 -208 8 -215 4 -6 21 -19 37 -27 22 -12 32 -12 43
-4 8 7 16 8 20 2 14 -19 71 -44 102 -44 21 0 29 -4 24 -11 -4 -7 -1 -10 7 -7
8 3 20 -2 27 -11 8 -9 11 -11 8 -4 -4 6 -2 13 4 15 5 2 14 88 20 193 11 190
22 265 40 265 6 0 9 3 9 8 -3 18 2 26 10 14 7 -11 11 -11 23 1 8 8 23 17 34
20 10 2 -79 5 -198 6 l-218 1 0 -202z"/>
<path d="M1111 1538 c-14 -82 -21 -252 -11 -268 4 -7 13 -9 19 -6 6 4 9 12 5
17 -3 5 0 17 8 26 13 16 18 34 56 206 l19 87 -42 0 -43 0 -11 -62z"/>
<path d="M1351 1528 c-7 -40 -17 -81 -22 -90 -6 -11 -5 -24 2 -37 9 -14 10
-48 1 -147 -7 -71 -17 -223 -23 -339 -6 -116 -12 -211 -14 -213 -1 -2 -13 13
-25 33 -12 20 -34 41 -49 47 -66 27 -299 110 -325 116 -16 4 -43 24 -59 45
-29 35 -30 39 -18 77 8 26 18 40 29 41 10 0 12 3 5 6 -18 7 -16 43 1 43 18 0
27 26 26 76 0 22 2 74 6 117 4 47 2 82 -4 90 -5 6 -15 32 -22 57 -14 52 -26
65 -95 101 -62 32 -115 40 -180 28 -27 -5 -67 -12 -87 -15 -24 -4 -40 -13 -43
-25 -4 -10 -12 -25 -18 -31 -7 -7 -25 -30 -40 -51 -28 -37 -29 -41 -22 -110 4
-40 11 -82 16 -95 6 -14 5 -29 -3 -41 -6 -11 -8 -26 -3 -37 7 -17 8 -17 14 6
4 15 10 20 14 13 4 -6 4 -18 1 -27 -3 -9 -1 -23 6 -31 7 -8 10 -26 8 -40 -3
-14 -2 -25 3 -25 5 0 8 33 8 73 -1 95 11 122 56 137 20 7 39 9 42 6 4 -3 0 -6
-8 -6 -8 0 -22 -7 -32 -14 -25 -19 -13 -66 17 -67 11 0 15 -3 8 -6 -17 -7 -5
-23 18 -23 31 0 68 21 73 41 8 29 26 23 44 -16 15 -30 21 -35 53 -35 46 0 87
19 95 45 6 17 8 15 18 -13 8 -26 7 -40 -6 -68 -10 -19 -17 -41 -17 -49 0 -9
-10 -15 -24 -15 -14 0 -28 -4 -31 -10 -4 -6 -17 -4 -36 6 -23 12 -28 18 -19
28 13 16 -3 66 -21 66 -7 0 -5 -9 5 -25 16 -25 16 -25 -11 -26 -16 -1 -43 0
-62 1 -20 1 -31 -2 -27 -8 3 -6 -8 -15 -24 -21 -22 -7 -30 -16 -30 -34 0 -30
-10 -40 -27 -26 -10 9 -13 8 -13 0 0 -7 -4 -9 -10 -6 -14 8 -13 -1 4 -33 7
-15 16 -63 19 -107 3 -44 8 -87 12 -96 4 -12 -1 -18 -20 -23 -27 -7 -45 -39
-45 -82 0 -27 6 -29 46 -14 19 8 31 7 42 -2 13 -11 15 -10 9 5 -5 14 -2 16 18
11 22 -5 25 -3 25 19 0 17 7 28 21 32 11 4 23 4 26 2 8 -9 -7 -27 -23 -27 -8
0 -14 -4 -14 -9 0 -5 10 -7 22 -3 14 3 19 2 14 -6 -4 -7 -13 -12 -20 -12 -6 0
-27 -16 -46 -35 l-34 -35 34 6 c19 3 41 7 48 10 19 6 16 -10 -47 -206 -33
-102 -67 -214 -76 -250 -9 -35 -23 -76 -31 -91 -31 -62 -58 -59 572 -59 l574
0 0 800 0 800 -118 0 -118 0 -13 -72z"/>
<path d="M360 821 c-236 -95 -257 -117 -259 -271 0 -47 -5 -157 -11 -245 -6
-88 -12 -193 -14 -232 l-4 -73 113 0 113 0 7 41 c4 22 15 48 25 57 14 13 19
40 23 127 3 61 17 162 31 225 13 63 33 160 45 215 11 55 25 116 31 135 12 41
13 60 3 60 -5 0 -51 -18 -103 -39z"/>
</g>
</svg>
