<?xml version="1.0" standalone="no"?>
<!DOCTYPE svg PUBLIC "-//W3C//DTD SVG 20010904//EN"
 "http://www.w3.org/TR/2001/REC-SVG-20010904/DTD/svg10.dtd">
<svg version="1.0" xmlns="http://www.w3.org/2000/svg"
 width="563.000000pt" height="755.000000pt" viewBox="0 0 563.000000 755.000000"
 preserveAspectRatio="xMidYMid meet">

<g transform="translate(0.000000,755.000000) scale(0.100000,-0.100000)"
fill="#000000" stroke="none">
<path d="M0 7535 c0 -13 318 -15 2805 -15 l2805 0 0 -2214 0 -2213 -42 9 c-24
5 -63 12 -88 15 -25 3 -48 10 -51 15 -4 7 -14 6 -27 -1 -23 -12 -132 -15 -132
-3 0 8 -73 10 -80 1 -9 -11 -240 -20 -240 -9 0 6 -28 9 -71 8 -55 -2 -73 0
-82 13 -12 16 -55 32 -95 34 -13 0 -28 7 -33 15 -8 13 -10 13 -19 0 -8 -12
-12 -12 -18 -2 -7 10 -16 9 -43 -5 -19 -10 -36 -21 -39 -25 -8 -10 -165 -21
-204 -14 -21 4 -36 13 -36 21 0 7 -18 22 -39 32 -24 11 -42 27 -46 41 -7 29
-79 101 -122 123 -32 16 -33 16 -33 -5 0 -18 -3 -17 -19 10 -23 37 -42 43
-117 38 -49 -3 -57 -1 -61 16 -4 16 -14 20 -44 20 -36 0 -38 2 -45 37 -7 36
-34 78 -34 53 0 -22 -18 0 -23 30 -4 16 -19 43 -33 60 -21 23 -36 30 -66 30
-34 0 -38 3 -38 25 0 20 -5 25 -24 25 -13 0 -31 3 -40 6 -11 4 -16 1 -16 -10
0 -11 9 -16 26 -16 23 0 25 -2 14 -15 -10 -13 -10 -19 4 -33 9 -10 16 -24 16
-30 0 -7 5 -12 10 -12 6 0 10 -10 10 -23 0 -15 10 -27 33 -37 17 -8 35 -13 40
-12 4 1 7 -11 7 -26 0 -29 0 -29 -46 -22 -25 4 -49 12 -53 19 -11 17 -72 24
-114 13 -32 -9 -39 -8 -50 8 -7 10 -40 31 -75 46 -34 16 -62 31 -62 34 0 3 17
14 37 25 21 11 39 29 42 40 2 11 7 22 11 25 9 6 13 25 11 56 -1 29 -61 58
-101 49 -19 -4 -30 -3 -30 4 0 20 -85 13 -105 -9 -19 -21 -45 -27 -45 -10 0 5
-20 19 -45 31 -25 12 -54 33 -65 47 -15 18 -32 26 -65 29 -30 2 -45 0 -45 -8
0 -8 -7 -6 -18 4 -24 22 -46 22 -38 1 8 -20 -11 -45 -28 -38 -7 3 -27 -9 -45
-25 -18 -17 -49 -33 -69 -37 -20 -3 -43 -13 -49 -22 -11 -14 -13 -12 -13 14 1
32 20 64 39 64 7 0 10 4 6 10 -8 13 40 42 83 49 40 7 49 24 51 97 1 26 6 44
15 47 16 6 34 104 38 207 3 64 7 79 28 103 16 18 32 58 45 110 l21 82 49 0 50
0 10 -80 c13 -95 27 -125 83 -178 12 -11 21 -26 18 -32 -7 -19 11 -39 37 -40
30 -2 87 -25 87 -35 0 -11 38 -2 80 19 8 4 49 6 90 5 82 -3 162 10 197 32 12
8 28 14 35 14 8 0 21 8 29 18 9 9 25 22 35 28 19 11 19 12 0 33 -13 14 -26 19
-42 15 -31 -8 -32 12 -2 38 14 12 33 18 52 16 22 -2 31 1 31 12 0 10 12 16 37
18 50 4 64 22 44 60 -16 32 -51 59 -99 80 -15 7 -25 17 -22 22 4 6 11 7 17 4
6 -4 8 -2 5 3 -4 6 -21 14 -39 17 -18 4 -42 13 -52 21 -20 15 -20 15 0 15 12
0 25 10 32 24 6 13 20 27 31 31 12 3 21 10 21 15 0 15 53 22 61 8 6 -10 14 -7
34 12 25 25 25 27 9 59 -11 23 -19 29 -24 21 -6 -10 -11 -10 -21 -2 -53 44
-109 80 -114 73 -3 -5 -31 -3 -63 5 -70 16 -119 18 -124 3 -3 -9 -10 -9 -26 0
-12 7 -28 9 -34 5 -6 -4 -35 -6 -63 -5 -30 1 -62 -4 -79 -13 -16 -8 -34 -12
-39 -9 -15 9 -246 11 -284 2 -19 -4 -33 -3 -33 2 0 13 -86 5 -103 -10 -11 -9
-17 -8 -27 4 -11 13 -28 14 -101 9 -79 -6 -89 -5 -89 10 0 12 -10 16 -44 16
-23 0 -57 5 -75 11 -47 17 -146 -8 -115 -28 9 -6 8 -12 -2 -21 -12 -10 -14
-10 -14 3 0 22 -18 19 -25 -5 -3 -11 -15 -20 -26 -20 -10 0 -19 -7 -19 -15 0
-8 -6 -15 -12 -16 -29 -1 -56 -9 -84 -24 -16 -8 -40 -15 -53 -15 -37 0 -130
-49 -175 -93 -23 -22 -60 -55 -84 -74 -23 -20 -49 -52 -58 -72 -9 -20 -22 -47
-29 -61 -19 -39 -27 -124 -15 -173 13 -48 59 -92 119 -113 20 -7 38 -20 41
-31 8 -29 52 -73 73 -73 10 0 30 -9 44 -20 14 -11 36 -20 49 -20 13 0 24 -4
24 -9 0 -5 12 -12 27 -16 16 -4 23 -9 17 -12 -13 -5 -6 -43 7 -43 6 0 12 6 15
14 5 12 9 11 25 -5 10 -10 30 -21 44 -25 14 -3 25 -10 25 -15 0 -5 17 -9 38
-9 27 0 48 -8 75 -31 20 -17 41 -27 47 -24 6 4 10 -5 10 -21 0 -26 -1 -26 -13
-9 -13 16 -15 14 -21 -23 -7 -44 -7 -45 -91 -56 -34 -5 -43 -2 -62 22 l-23 27
-20 -24 c-11 -13 -20 -18 -20 -12 0 6 -17 11 -40 11 -29 0 -40 4 -40 15 0 19
-16 19 -24 0 -8 -21 -99 -21 -116 0 -10 12 -10 18 0 30 10 12 10 15 -3 15 -9
0 -16 -12 -19 -30 -5 -35 0 -46 27 -52 20 -5 20 -5 1 -13 -13 -6 -21 -4 -24 3
-6 19 -36 14 -55 -8 -10 -12 -12 -20 -5 -20 7 0 3 -7 -8 -16 -13 -10 -15 -17
-7 -20 10 -4 10 -10 0 -25 -9 -15 -9 -23 1 -39 11 -18 10 -20 -10 -21 -13 0
-17 -3 -10 -6 17 -7 15 -24 -5 -38 -10 -7 -13 -17 -8 -25 10 -16 12 -90 3 -90
-4 0 -10 -9 -13 -20 -3 -11 -11 -20 -16 -20 -5 0 -9 9 -9 20 0 11 -6 20 -14
20 -7 0 -19 7 -26 15 -7 8 -16 12 -21 9 -14 -8 -11 -102 4 -107 9 -3 9 -7 -1
-20 -12 -14 -11 -26 2 -80 9 -35 16 -72 16 -82 0 -20 40 -126 51 -135 5 -4 29
-54 63 -130 6 -14 19 -34 29 -44 9 -11 17 -25 17 -33 0 -20 -97 -40 -300 -63
-109 -12 -133 -18 -125 -31 4 -5 -3 -9 -14 -9 -13 0 -19 -5 -15 -14 4 -10 -7
-16 -38 -21 -24 -4 -49 -12 -55 -17 -7 -6 -22 -8 -33 -5 -14 4 -25 -1 -33 -14
-8 -13 -23 -19 -49 -19 -27 0 -38 -4 -38 -15 0 -8 -6 -15 -12 -15 -7 0 -56 -7
-108 -16 -52 -8 -109 -17 -126 -19 -17 -2 -56 -15 -86 -29 -30 -14 -61 -26
-69 -26 -8 0 -27 -7 -44 -16 -16 -8 -48 -18 -72 -21 -24 -3 -43 -11 -43 -17
-1 -6 -19 -24 -40 -41 -23 -18 -39 -39 -40 -51 0 -11 -9 -29 -20 -39 -13 -12
-17 -25 -14 -44 4 -19 -1 -34 -21 -55 -19 -21 -25 -37 -23 -60 3 -28 -1 -33
-39 -50 -43 -19 -53 -36 -53 -93 0 -22 5 -33 14 -33 21 0 27 -164 7 -204 -9
-21 -12 -49 -8 -93 4 -40 3 -63 -4 -63 -6 0 -7 -5 -4 -10 4 -6 1 -27 -5 -46
-15 -45 -30 -28 -30 34 0 36 -3 43 -18 40 -14 -3 -17 -14 -16 -73 0 -38 -2
-62 -5 -52 -6 16 -8 16 -24 -3 -13 -16 -16 -30 -11 -55 5 -28 2 -38 -20 -58
-14 -13 -26 -34 -26 -46 0 -12 -4 -19 -10 -16 -6 3 -10 2 -10 -2 0 -5 -13 -17
-30 -26 -23 -14 -30 -25 -30 -48 0 -16 -3 -29 -7 -29 -5 0 -23 -13 -41 -29
-18 -17 -50 -32 -72 -36 -22 -4 -40 -11 -40 -17 0 -5 -15 -8 -33 -6 l-32 3 -3
-583 -3 -582 2816 0 2815 0 0 3775 0 3775 -2815 0 c-2496 0 -2815 -2 -2815
-15z m3677 -2974 c44 -7 70 -17 92 -37 17 -15 30 -29 28 -31 -8 -7 -153 30
-168 43 -8 8 -24 14 -35 14 -10 0 -26 5 -34 10 -20 13 32 13 117 1z m-422
-971 c3 -5 1 -10 -4 -10 -6 0 -11 5 -11 10 0 6 2 10 4 10 3 0 8 -4 11 -10z
m143 -447 c-9 -10 -13 -24 -11 -30 3 -8 -5 -13 -21 -13 -16 0 -26 6 -26 14 0
17 37 46 59 46 12 0 12 -3 -1 -17z m626 -474 c12 -123 -1 -412 -24 -516 -6
-24 -14 -72 -19 -106 -5 -35 -18 -82 -29 -103 -11 -21 -26 -52 -35 -69 -8 -16
-17 -46 -20 -66 -5 -33 -3 -36 18 -32 12 3 26 0 29 -6 4 -6 16 -11 26 -11 25
0 27 -11 40 -175 20 -242 58 -558 109 -895 66 -431 91 -609 91 -642 l0 -28
-1094 0 -1094 0 9 43 c4 23 15 83 24 132 9 50 27 142 40 205 13 63 39 207 59
320 35 197 58 320 76 405 9 42 44 254 56 340 8 57 22 102 23 73 1 -20 31 -25
31 -5 0 8 3 7 10 -3 18 -29 21 0 6 72 -19 92 -29 273 -18 313 8 29 9 29 16 8
9 -29 17 -28 40 4 19 25 19 26 -13 117 -18 50 -43 129 -56 176 -13 47 -32 114
-43 150 -23 78 -38 169 -25 155 5 -5 20 -44 32 -86 22 -70 30 -83 113 -169 84
-89 131 -148 162 -208 8 -15 24 -38 35 -51 12 -13 21 -31 21 -40 1 -24 74
-163 90 -172 8 -4 54 -25 101 -48 161 -77 274 -161 402 -299 l48 -52 52 68
c130 172 249 293 354 363 73 48 89 56 80 42 -3 -5 -1 -26 3 -48 l8 -40 1 43
c1 30 5 42 16 42 8 0 15 -7 15 -15 0 -8 -4 -15 -10 -15 -5 0 -10 -7 -10 -15 0
-9 10 -15 26 -15 24 0 25 2 20 43 -3 23 -8 123 -11 223 l-5 180 35 78 c20 42
54 105 76 138 37 59 70 143 84 222 11 54 21 44 29 -25z m636 -90 c-7 -11 -14
-18 -17 -15 -8 8 5 36 17 36 7 0 7 -6 0 -21z m40 -42 c0 -27 -24 -97 -33 -97
-10 0 1 39 16 58 5 7 7 29 4 50 -5 25 -3 32 3 22 5 -8 10 -23 10 -33z m88 -71
c2 -16 0 -26 -6 -22 -6 3 -8 15 -5 26 5 21 -11 28 -22 10 -4 -6 -11 -8 -16 -4
-16 9 2 25 24 22 16 -2 23 -11 25 -32z m-65 -11 c-7 -21 -13 -19 -13 6 0 11 4
18 10 14 5 -3 7 -12 3 -20z m47 -29 c0 -11 -19 -15 -25 -6 -3 5 1 10 9 10 9 0
16 -2 16 -4z m40 -37 c-12 -21 -25 -25 -35 -9 -3 6 1 10 9 10 9 0 16 7 16 16
0 8 5 12 10 9 7 -4 7 -13 0 -26z"/>
<path d="M3892 2158 c-7 -7 -12 -18 -12 -25 0 -11 5 -11 20 -3 11 6 20 17 20
25 0 18 -12 19 -28 3z"/>
<path d="M2801 6094 c-13 -10 -21 -12 -17 -6 4 7 2 12 -6 11 -17 -1 -56 -17
-43 -18 6 -1 3 -6 -5 -11 -10 -6 -11 -10 -2 -10 7 0 12 -13 12 -30 0 -32 -29
-44 -31 -12 0 12 -3 11 -10 -6 -6 -15 -5 -30 1 -40 9 -16 9 -16 10 1 0 13 9
17 40 17 32 0 40 -4 40 -19 0 -10 7 -25 16 -32 14 -11 21 -10 46 4 16 9 42 17
58 17 15 0 40 7 56 14 33 18 142 12 190 -9 23 -11 64 -13 91 -6 2 1 -5 10 -14
21 -10 12 -30 20 -48 20 -18 0 -41 10 -57 25 -15 13 -40 26 -57 27 -16 1 -27
6 -25 10 7 11 -43 31 -81 33 -16 1 -55 5 -85 9 -44 5 -60 3 -79 -10z m309 -84
c0 -5 -5 -10 -11 -10 -5 0 -7 5 -4 10 3 6 8 10 11 10 2 0 4 -4 4 -10z"/>
<path d="M2545 6028 c-14 -30 -32 -33 -40 -8 -8 24 -21 16 -27 -15 -2 -11 -10
-20 -18 -21 -31 -2 -70 -17 -70 -26 0 -16 -32 -37 -57 -38 -18 0 -23 -6 -23
-25 0 -18 -5 -25 -19 -25 -20 0 -71 -55 -71 -77 0 -22 30 -14 60 15 26 27 29
27 41 11 7 -10 25 -23 41 -30 20 -8 28 -19 28 -36 l0 -24 38 28 c20 15 41 34
45 40 4 7 18 13 31 13 27 0 66 31 66 53 0 9 8 23 17 32 22 23 19 124 -4 143
-23 16 -27 15 -38 -10z"/>
<path d="M2425 6030 c-7 -12 2 -30 16 -30 5 0 9 6 9 14 0 8 6 17 13 19 6 3 2
6 -10 6 -12 1 -25 -3 -28 -9z"/>
<path d="M2716 5938 c3 -4 18 -8 35 -8 16 0 29 4 29 8 0 4 -15 8 -34 8 -19 0
-32 -4 -30 -8z"/>
<path d="M3320 5915 c14 -7 27 -11 30 -9 6 7 -22 24 -40 23 -9 0 -5 -6 10 -14z"/>
<path d="M2710 5912 c0 -5 7 -9 15 -9 8 0 15 4 15 9 0 4 -7 8 -15 8 -8 0 -15
-4 -15 -8z"/>
<path d="M2775 5890 c3 -5 8 -10 11 -10 2 0 4 5 4 10 0 6 -5 10 -11 10 -5 0
-7 -4 -4 -10z"/>
<path d="M2260 5729 c0 -5 5 -7 10 -4 6 3 10 8 10 11 0 2 -4 4 -10 4 -5 0 -10
-5 -10 -11z"/>
<path d="M3681 5668 c27 -23 83 -100 121 -167 28 -50 38 -62 44 -48 3 9 3 28
0 41 -4 15 -1 26 7 29 7 3 5 6 -5 6 -10 1 -18 7 -18 14 0 18 -79 105 -80 87 0
-8 -9 0 -20 18 -13 20 -28 32 -42 32 -19 0 -20 -2 -7 -12z"/>
<path d="M1891 5609 c-14 -5 -32 -9 -40 -8 -29 3 -42 -1 -37 -10 10 -16 -13
-61 -41 -84 -15 -12 -43 -38 -63 -58 -19 -19 -42 -38 -50 -41 -15 -5 -26 -23
-49 -81 -7 -17 -16 -25 -22 -21 -7 4 -10 1 -7 -7 3 -8 -1 -20 -9 -27 -7 -7
-15 -24 -18 -38 -3 -13 -7 -35 -10 -48 -3 -14 -13 -32 -22 -42 -12 -11 -14
-19 -6 -21 11 -4 6 -43 -6 -43 -4 0 -6 -13 -3 -30 2 -16 1 -38 -3 -47 -11 -26
-14 -152 -4 -158 4 -3 6 -20 4 -37 -2 -17 -1 -44 2 -60 4 -23 10 -28 25 -25
22 6 42 -25 33 -53 -9 -27 -22 -25 -29 5 -4 14 -11 25 -16 25 -6 0 -8 -30 -5
-77 5 -82 20 -143 36 -143 5 0 9 -17 9 -37 0 -21 7 -47 15 -57 14 -19 15 -17
15 20 0 28 3 35 10 24 5 -8 8 -24 6 -35 -2 -11 -1 -14 1 -7 9 27 23 10 23 -29
0 -33 3 -40 16 -35 8 3 13 2 11 -2 -3 -4 -1 -25 3 -47 4 -22 8 135 9 355 1
420 7 478 50 524 11 12 34 58 50 101 30 83 62 155 83 190 65 105 98 163 98
170 0 8 -33 4 -59 -6z m-321 -1021 c0 -16 5 -28 12 -28 6 0 9 -2 6 -5 -10 -10
-36 6 -41 26 -3 10 -3 28 0 40 8 27 23 5 23 -33z"/>
<path d="M3894 5459 c-4 -7 -2 -15 4 -17 7 -2 12 -8 12 -14 0 -6 -6 -5 -15 2
-12 10 -19 10 -27 2 -8 -8 -4 -19 15 -41 21 -26 26 -28 30 -13 3 13 7 10 17
-13 18 -40 25 -11 11 43 -13 46 -35 70 -47 51z"/>
<path d="M2233 5298 c-4 -7 -6 -21 -5 -30 2 -13 -1 -16 -12 -12 -11 4 -22 -4
-33 -25 -10 -17 -21 -31 -25 -31 -5 0 -8 -11 -8 -24 0 -14 -4 -28 -10 -31 -23
-14 -7 -25 40 -25 l50 0 0 40 c0 36 3 40 25 40 24 0 25 3 25 55 0 48 -3 55
-19 55 -11 0 -23 -6 -28 -12z"/>
<path d="M1575 4350 c-3 -5 -1 -10 4 -10 6 0 11 5 11 10 0 6 -2 10 -4 10 -3 0
-8 -4 -11 -10z"/>
<path d="M3338 3925 c-7 -7 10 -45 24 -55 11 -9 28 -60 28 -86 0 -24 2 -25 47
-18 77 11 90 44 17 44 -15 0 -24 6 -24 15 0 8 -7 15 -15 15 -8 0 -15 4 -15 9
0 4 -11 20 -24 34 -13 14 -26 31 -28 37 -2 6 -6 8 -10 5z"/>
<path d="M2150 3910 c0 -5 4 -10 9 -10 6 0 13 5 16 10 3 6 -1 10 -9 10 -9 0
-16 -4 -16 -10z"/>
<path d="M2791 3904 c0 -11 3 -14 6 -6 3 7 2 16 -1 19 -3 4 -6 -2 -5 -13z"/>
<path d="M3430 3746 c0 -16 21 -26 56 -26 17 0 24 6 24 20 0 17 -7 20 -40 20
-28 0 -40 -4 -40 -14z"/>
<path d="M400 2010 c0 -5 5 -10 11 -10 5 0 7 5 4 10 -3 6 -8 10 -11 10 -2 0
-4 -4 -4 -10z"/>
</g>
</svg>
